{"accessors":[{"name":"Extrude-Mesh_0_positions","componentType":5126,"count":3534,"min":[25.972721099853516,-16.05320167541504,-0.5815853476524353],"max":[39.69575119018555,-14.169378280639648,0.4184146523475647],"type":"VEC3","bufferView":0,"byteOffset":0},{"name":"Extrude-Mesh_0_normals","componentType":5126,"count":3534,"min":[-1,-1,0],"max":[1,1,0],"type":"VEC3","bufferView":1,"byteOffset":0},{"name":"Extrude-Mesh_0_indices","componentType":5123,"count":9420,"min":[0],"max":[3533],"type":"SCALAR","bufferView":2,"byteOffset":0},{"name":"Cap_1-Mesh_0_positions","componentType":5126,"count":1570,"min":[25.972721099853516,-16.05320167541504,0.4184146523475647],"max":[39.69575119018555,-14.169378280639648,0.4184146523475647],"type":"VEC3","bufferView":0,"byteOffset":42408},{"name":"Cap_1-Mesh_0_normals","componentType":5126,"count":1570,"min":[0,0,1],"max":[0,0,1],"type":"VEC3","bufferView":1,"byteOffset":42408},{"name":"Cap_1-Mesh_0_indices","componentType":5123,"count":4656,"min":[0],"max":[1569],"type":"SCALAR","bufferView":2,"byteOffset":18840},{"name":"Cap_2-Mesh_0_positions","componentType":5126,"count":1570,"min":[25.972721099853516,-16.05320167541504,-0.5815853476524353],"max":[39.69575119018555,-14.169378280639648,-0.5815853476524353],"type":"VEC3","bufferView":0,"byteOffset":61248},{"name":"Cap_2-Mesh_0_normals","componentType":5126,"count":1570,"min":[0,0,-1],"max":[0,0,1],"type":"VEC3","bufferView":1,"byteOffset":61248},{"name":"Cap_2-Mesh_0_indices","componentType":5123,"count":4656,"min":[0],"max":[1569],"type":"SCALAR","bufferView":2,"byteOffset":28152}],"asset":{"generator":"obj2gltf","version":"2.0"},"buffers":[{"name":"WATCH_JOURNAL","byteLength":197640,"uri":"data:application/octet-stream;base64,"}],"bufferViews":[{"name":"bufferView_0","buffer":0,"byteLength":80088,"byteOffset":0,"byteStride":12,"target":34962},{"name":"bufferView_1","buffer":0,"byteLength":80088,"byteOffset":80088,"byteStride":12,"target":34962},{"name":"bufferView_3","buffer":0,"byteLength":37464,"byteOffset":160176,"target":34963}],"materials":[{"name":"Mat","pbrMetallicRoughness":{"baseColorFactor":[0.80000001192093,0.80000001192093,0.80000001192093,1],"metallicFactor":0,"roughnessFactor":0.95},"emissiveFactor":[0,0,0],"alphaMode":"OPAQUE","doubleSided":false}],"meshes":[{"name":"Extrude-Mesh","primitives":[{"attributes":{"POSITION":0,"NORMAL":1},"indices":2,"material":0,"mode":4}]},{"name":"Cap_1-Mesh","primitives":[{"attributes":{"POSITION":3,"NORMAL":4},"indices":5,"material":0,"mode":4}]},{"name":"Cap_2-Mesh","primitives":[{"attributes":{"POSITION":6,"NORMAL":7},"indices":8,"material":0,"mode":4}]}],"nodes":[{"name":"Extrude","mesh":0},{"name":"Cap_1","mesh":1},{"name":"Cap_2","mesh":2}],"scene":0,"scenes":[{"nodes":[0,1,2]}]}
